<svg xmlns="http://www.w3.org/2000/svg" xmlns:xlink="http://www.w3.org/1999/xlink" width="2668" height="1051" viewBox="0 0 2668 1051"><defs><style>.a{clip-path:url(#c);}.b{fill:url(#a);}.c{fill:#0da5e9;}.d{fill:#c73a9d;}.e,.f{fill:#fff;}.e{font-size:393px;font-family:Rubik-Bold, Rubik;font-weight:700;}.f{font-size:150px;font-family:SegoeUI, Segoe UI;}</style><linearGradient id="a" x1="0.5" x2="0.5" y2="1" gradientUnits="objectBoundingBox"><stop offset="0" stop-color="#0da5e9"/><stop offset="1" stop-color="#c73a9d"/></linearGradient><clipPath id="c"><rect width="2668" height="1051"/></clipPath></defs><g id="b" class="a"><g transform="translate(-311.485 633.286) rotate(-14)"><path class="b" d="M23080.682,21001.357h-.027a394.014,394.014,0,0,1-121.363-19.168,402.509,402.509,0,0,1-39.705-15.219,394.788,394.788,0,0,1-167.742-140.822,364.867,364.867,0,0,0,270.01,120.145,364.432,364.432,0,0,0,148.617-697.266,362.2,362.2,0,0,0-187.42-29.373,394.548,394.548,0,0,1,219.779,6.742,402.417,402.417,0,0,1,75.932,33.594,396.347,396.347,0,0,1,179.418,467.773,402.768,402.768,0,0,1-14.637,37.916,397.476,397.476,0,0,1-362.861,235.678Z" transform="translate(-20644.902 -20123.277)"/></g><path class="c" d="M0,0H221.113a193.3,193.3,0,0,1,193.3,193.3v0A184.058,184.058,0,0,1,230.351,377.355H0a0,0,0,0,1,0,0V0A0,0,0,0,1,0,0Z" transform="translate(46.387 242.035)"/><path d="M165.576,0,331.152,228.43H0Z" transform="translate(200.117 309.844) rotate(42)"/><path class="d" d="M470.916,395.57l0,0H0V28.529L31.678,0,470.914,395.568Z" transform="translate(18.133 479.828)"/><text class="e" transform="translate(1435.051 269.964)"><tspan x="-933.571" y="367">Robust IT</tspan></text><text class="f" transform="translate(517.516 701.184)"><tspan x="0" y="162">Est 2011</tspan></text></g></svg>