<svg xmlns="http://www.w3.org/2000/svg" xmlns:xlink="http://www.w3.org/1999/xlink" width="2668" height="1051" viewBox="0 0 2668 1051"><defs><style>.a{clip-path:url(#c);}.b{fill:url(#a);}.c{fill:#0da5e9;}.d{fill:#c73a9d;}.e{font-size:393px;font-family:Rubik-Bold, Rubik;font-weight:700;}.f{font-size:150px;font-family:SegoeUI, Segoe UI;}</style><linearGradient id="a" x1="0.5" x2="0.5" y2="1" gradientUnits="objectBoundingBox"><stop offset="0" stop-color="#0da5e9"/><stop offset="1" stop-color="#c73a9d"/></linearGradient><clipPath id="c"><rect width="2668" height="1051"/></clipPath></defs><g id="b" class="a"><g transform="translate(-225.851 646.8) rotate(-14)"><path class="b" d="M288.871,697.607h-.023A346.175,346.175,0,0,1,182.234,680.77,353.406,353.406,0,0,1,147.355,667.4,346.82,346.82,0,0,1,0,543.693,320.515,320.515,0,0,0,237.193,649.236,320.565,320.565,0,0,0,529.742,459.207,319.651,319.651,0,0,0,203.107,10.914a346.628,346.628,0,0,1,193.066,5.922,353.353,353.353,0,0,1,66.7,29.512A346.479,346.479,0,0,1,584.861,163.885,349.716,349.716,0,0,1,637.822,355.42a347.073,347.073,0,0,1-8.072,68.066,350.262,350.262,0,0,1-9.262,33.781,353.68,353.68,0,0,1-12.857,33.307,349.16,349.16,0,0,1-318.76,207.033Z" transform="translate(2106.941 83.953)"/></g><path class="c" d="M0,0H221.113a193.3,193.3,0,0,1,193.3,193.3v0A184.058,184.058,0,0,1,230.351,377.355H0a0,0,0,0,1,0,0V0A0,0,0,0,1,0,0Z" transform="translate(46.387 242.035)"/><path d="M165.576,0,331.152,228.43H0Z" transform="translate(200.117 309.844) rotate(42)"/><path class="d" d="M470.916,395.57l0,0H0V28.529L31.678,0,470.914,395.568Z" transform="translate(18.133 479.828)"/><text class="e" transform="translate(1423.049 636.964)"><tspan x="-933.571" y="0">Robust IT</tspan></text><text class="f" transform="translate(517.516 701.184)"><tspan x="0" y="162">Est 2011</tspan></text></g></svg>