<svg xmlns="http://www.w3.org/2000/svg" width="365.012" height="220.596" viewBox="0 0 365.012 220.596"><defs><style>.a,.c{fill:none;}.a{stroke:#707070;}.b{fill:#224b57;}.c{stroke:#224b57;stroke-width:5px;}.d,.e,.f{fill:#282828;font-family:SegoeUI-Semibold, Segoe UI;font-weight:600;}.d{font-size:45px;}.d,.e{letter-spacing:-0.005em;}.e,.f{font-size:30px;}.f{letter-spacing:0.2em;}</style></defs><g transform="translate(23920.689 21347)"><path class="a" d="M-23801.424-21126.4"/><path class="b" d="M-23896.906-21293.174c14.971-38.582-14.969,90.914,94.3,154.33C-23874.453-21174.766-23911.875-21254.59-23896.906-21293.174Z" transform="translate(-5.299 9.199)"/><path class="b" d="M-23805.863-21293.174c-14.971-38.582,14.969,90.914-94.3,154.33C-23828.316-21174.766-23790.895-21254.59-23805.863-21293.174Z" transform="translate(234.701 6.439)"/><path class="b" d="M-23805.863-21293.174c-14.971-38.582,14.969,90.914-94.3,154.33C-23828.316-21174.766-23790.895-21254.59-23805.863-21293.174Z" transform="matrix(0.966, -0.259, 0.259, 0.966, 4907.004, -6929.791)"/><path class="b" d="M94.3,154.334C79.332,192.916,109.271,63.418,0,0,71.85,35.924,109.271,115.75,94.3,154.334Z" transform="matrix(-0.966, -0.259, 0.259, -0.966, -23826.449, -21162.525)"/><line class="c" x2="200" transform="translate(-23839.5 -21271.5)"/><line class="c" x2="200" transform="translate(-23839.5 -21183.5)"/><text class="d" transform="translate(-23860 -21275)"><tspan x="21.773" y="49">CyberOps</tspan></text><text class="e" transform="translate(-23860 -21224.5)"><tspan x="38.979" y="32">Professional</tspan></text><text class="f" transform="translate(-23865 -21347)"><tspan x="66.181" y="32">CISCO</tspan><tspan x="27.352" y="62">CERTIFIED</tspan></text></g></svg>