<svg xmlns="http://www.w3.org/2000/svg" xmlns:xlink="http://www.w3.org/1999/xlink" width="1920" height="446" viewBox="0 0 1920 446"><defs><style>.a{clip-path:url(#i);}.b{fill:#c4399b;}.c{fill:#0da5e9;}.d{fill:#ebebeb;}.e{fill:url(#c);}.f{fill:#030e22;opacity:0.95;}.g{filter:url(#f);}.h{filter:url(#d);}.i{filter:url(#a);mix-blend-mode:darken;isolation:isolate;}</style><filter id="a" x="-25" y="110.998" width="2010" height="706.004" filterUnits="userSpaceOnUse"><feOffset dx="20" dy="20" input="SourceAlpha"/><feGaussianBlur stdDeviation="15" result="b"/><feFlood flood-opacity="0.161"/><feComposite operator="in" in2="b"/><feComposite in="SourceGraphic"/></filter><linearGradient id="c" x1="0.167" y1="0.231" x2="1.171" y2="0.532" gradientUnits="objectBoundingBox"><stop offset="0" stop-color="#c73a9d"/><stop offset="1" stop-color="#0da5e9"/></linearGradient><filter id="d" x="-25" y="178.998" width="2010" height="706.004" filterUnits="userSpaceOnUse"><feOffset dx="20" dy="20" input="SourceAlpha"/><feGaussianBlur stdDeviation="15" result="e"/><feFlood flood-opacity="0.161"/><feComposite operator="in" in2="e"/><feComposite in="SourceGraphic"/></filter><filter id="f" x="-25" y="245.998" width="2010" height="706.004" filterUnits="userSpaceOnUse"><feOffset dx="20" dy="20" input="SourceAlpha"/><feGaussianBlur stdDeviation="15" result="g"/><feFlood/><feComposite operator="in" in2="g"/><feComposite in="SourceGraphic"/></filter><clipPath id="i"><rect width="1920" height="446"/></clipPath></defs><g id="h" class="a"><g transform="translate(1850.416 221.715) rotate(14)"><rect class="b" width="8.503" height="34.011" rx="4.251" transform="translate(12.754 0)"/><rect class="b" width="8.503" height="34.011" rx="4.251" transform="translate(34.011 12.754) rotate(90)"/></g><g transform="matrix(0.914, -0.407, 0.407, 0.914, 1356.885, 62.802)"><rect class="c" width="11" height="44" rx="5.5" transform="translate(16.5 0)"/><rect class="c" width="11" height="44" rx="5.5" transform="translate(44 16.5) rotate(90)"/></g><g class="i" transform="matrix(1, 0, 0, 1, 0, 0)"><path class="d" d="M0,540s143.534-122.587,292.66,0,292.66,0,292.66,0S747.5,372.983,924.583,540s335.534,0,335.534,0,152.854-165.085,341.126,0S1920,540,1920,540v541.774H0Z" transform="translate(0 -329.77)"/></g><g transform="matrix(0.883, -0.469, 0.469, 0.883, 45.747, 156.655)"><rect class="b" width="11" height="44" rx="5.5" transform="translate(16.5)"/><rect class="b" width="11" height="44" rx="5.5" transform="translate(44 16.5) rotate(90)"/></g><g transform="translate(394.999 259.601) rotate(-59)"><rect class="c" width="7.931" height="31.722" rx="3.965" transform="translate(11.896)"/><rect class="c" width="7.931" height="31.722" rx="3.965" transform="translate(31.722 11.896) rotate(90)"/></g><g transform="matrix(0.914, -0.407, 0.407, 0.914, 1807.624, 269.945)"><rect class="c" width="7.302" height="29.209" rx="3.651" transform="translate(10.953 0)"/><rect class="c" width="7.302" height="29.209" rx="3.651" transform="translate(29.209 10.953) rotate(90)"/></g><g transform="translate(666.617 111.481) rotate(7)"><rect class="b" width="11" height="44" rx="5.5" transform="translate(16.5)"/><rect class="b" width="11" height="44" rx="5.5" transform="translate(44 16.5) rotate(90)"/></g><g transform="translate(1006.884 267.583) rotate(7)"><rect class="b" width="8.019" height="32.074" rx="4.009" transform="translate(12.028 0)"/><rect class="b" width="8.019" height="32.074" rx="4.009" transform="translate(32.074 12.028) rotate(90)"/></g><g class="h" transform="matrix(1, 0, 0, 1, 0, 0)"><path class="e" d="M0,540s143.534-122.587,292.66,0,292.66,0,292.66,0S747.5,372.983,924.583,540s335.534,0,335.534,0,152.854-165.085,341.126,0S1920,540,1920,540v541.774H0Z" transform="translate(0 -261.77)"/></g><g class="g" transform="matrix(1, 0, 0, 1, 0, 0)"><path class="f" d="M0,540s143.534-122.587,292.66,0,292.66,0,292.66,0S747.5,372.983,924.583,540s335.534,0,335.534,0,152.854-165.085,341.126,0S1920,540,1920,540v541.774H0Z" transform="translate(0 -194.77)"/></g></g></svg>