<svg xmlns="http://www.w3.org/2000/svg" xmlns:xlink="http://www.w3.org/1999/xlink" width="375" height="446" viewBox="0 0 375 446"><defs><style>.a{clip-path:url(#i);}.b{fill:#ebebeb;}.c{fill:url(#c);}.d{fill:#030e22;opacity:0.95;}.e{fill:#0da5e9;}.f{fill:#c4399b;}.g{filter:url(#f);}.h{filter:url(#d);}.i{filter:url(#a);mix-blend-mode:darken;isolation:isolate;}</style><filter id="a" x="-396" y="110.998" width="2010" height="706.004" filterUnits="userSpaceOnUse"><feOffset dx="20" dy="20" input="SourceAlpha"/><feGaussianBlur stdDeviation="15" result="b"/><feFlood flood-opacity="0.161"/><feComposite operator="in" in2="b"/><feComposite in="SourceGraphic"/></filter><linearGradient id="c" x1="0.167" y1="0.231" x2="1.171" y2="0.532" gradientUnits="objectBoundingBox"><stop offset="0" stop-color="#c73a9d"/><stop offset="1" stop-color="#0da5e9"/></linearGradient><filter id="d" x="-396" y="178.998" width="2010" height="706.004" filterUnits="userSpaceOnUse"><feOffset dx="20" dy="20" input="SourceAlpha"/><feGaussianBlur stdDeviation="15" result="e"/><feFlood flood-opacity="0.161"/><feComposite operator="in" in2="e"/><feComposite in="SourceGraphic"/></filter><filter id="f" x="-396" y="245.998" width="2010" height="706.004" filterUnits="userSpaceOnUse"><feOffset dx="20" dy="20" input="SourceAlpha"/><feGaussianBlur stdDeviation="15" result="g"/><feFlood/><feComposite operator="in" in2="g"/><feComposite in="SourceGraphic"/></filter><clipPath id="i"><rect width="375" height="446"/></clipPath></defs><g id="h" class="a"><g class="i" transform="matrix(1, 0, 0, 1, 0, 0)"><path class="b" d="M0,540s143.534-122.587,292.66,0,292.66,0,292.66,0S747.5,372.983,924.583,540s335.534,0,335.534,0,152.854-165.085,341.126,0S1920,540,1920,540v541.774H0Z" transform="translate(-371 -329.77)"/></g><g class="h" transform="matrix(1, 0, 0, 1, 0, 0)"><path class="c" d="M0,540s143.534-122.587,292.66,0,292.66,0,292.66,0S747.5,372.983,924.583,540s335.534,0,335.534,0,152.854-165.085,341.126,0S1920,540,1920,540v541.774H0Z" transform="translate(-371 -261.77)"/></g><g class="g" transform="matrix(1, 0, 0, 1, 0, 0)"><path class="d" d="M0,540s143.534-122.587,292.66,0,292.66,0,292.66,0S747.5,372.983,924.583,540s335.534,0,335.534,0,152.854-165.085,341.126,0S1920,540,1920,540v541.774H0Z" transform="translate(-371 -194.77)"/></g><g transform="translate(23.999 259.601) rotate(-59)"><rect class="e" width="7.931" height="31.722" rx="3.965" transform="translate(11.896)"/><rect class="e" width="7.931" height="31.722" rx="3.965" transform="translate(31.722 11.896) rotate(90)"/></g><g transform="translate(295.617 111.481) rotate(7)"><rect class="f" width="11" height="44" rx="5.5" transform="translate(16.5)"/><rect class="f" width="11" height="44" rx="5.5" transform="translate(44 16.5) rotate(90)"/></g></g></svg>