<?xml version="1.0" ?><svg width="32px" height="32px" viewBox="0 0 32 32" data-name="Layer 1" id="Layer_1" xmlns="http://www.w3.org/2000/svg">
<rect fill="none" stroke="#000000" stroke-width="1" stroke-miterlimit="5" height="1" width="12" x="10" y="29"/>

<rect fill="none" stroke="#000000" stroke-width="1" stroke-miterlimit="5" height="1" width="12" x="10" y="2"/>

<rect fill="none" stroke="#000000" stroke-width="1" stroke-miterlimit="5" height="1" width="12" x="9" y="5"/>

<rect fill="none" stroke="#000000" stroke-width="1" stroke-miterlimit="5" height="1" width="12" x="9" y="9"/>

<rect fill="none" stroke="#000000" stroke-width="1" stroke-miterlimit="5" height="1" width="12" x="13" y="12"/>

<rect fill="none" stroke="#000000" stroke-width="1" stroke-miterlimit="5" height="1" width="12" x="9" y="12"/>

<rect fill="none" stroke="#000000" stroke-width="1" stroke-miterlimit="5" height="1" width="12" x="13" y="15"/>

<rect fill="none" stroke="#000000" stroke-width="1" 
stroke-miterlimit="5" height="1" width="12" x="9" y="15"/>

<rect fill="none" stroke="#000000" stroke-width="1" stroke-miterlimit="5" height="1" width="12" x="13" y="18"/>

<rect fill="none" stroke="#000000" stroke-width="1" stroke-miterlimit="5" height="1" width="12" x="9" y="18"/>

<rect fill="none" stroke="#000000" stroke-width="1" stroke-miterlimit="10" height="1" width="12" x="13" y="21"/>

<rect fill="none" stroke="#000000" stroke-width="1" stroke-miterlimit="5" height="1" width="12" x="9" y="21"/>

<rect fill="none" stroke="#000000" stroke-width="1" stroke-miterlimit="5" height="1" width="12" x="13" y="24"/>

<rect fill="none" stroke="#000000" stroke-width="1" stroke-miterlimit="5" height="1" width="12" x="9" y="24"/>

<rect fill="none" stroke="#000000" stroke-width="1" stroke-miterlimit="5" height="1" transform="translate(9.5 41.5) rotate(-90)" width="20" x="15.5" y="15.5"/>

<path fill="none" stroke="#000000" stroke-width="1" stroke-miterlimit="5" d="M22,2V3h2a1,1,0,0,1,1,1V6h1V4a2,2,0,0,0-2-2Z"/>

<rect height="1" transform="translate(-9.5 22.5) rotate(-90)" width="20" x="-3.5" y="15.5"/>
<path fill="none" stroke="#000000" stroke-width="1" stroke-miterlimit="5" d="M10,2V3H8A1,1,0,0,0,7,4V6H6V4A2,2,0,0,1,8,2Z"/>

<path fill="none" stroke="#000000" stroke-width="1" stroke-miterlimit="5" d="M22,30V29h2a1,1,0,0,0,1-1V26h1v2a2,2,0,0,1-2,2Z"/>

<path fill="none" stroke="#000000" stroke-width="1" stroke-miterlimit="5" d="M10,30V29H8a1,1,0,0,1-1-1V26H6v2a2,2,0,0,0,2,2Z"/>

<rect fill="none" stroke="#000000" stroke-width="1" stroke-miterlimit="5" height="1" width="1" x="9" y="5"/>

<rect fill="none" stroke="#000000" stroke-width="1" stroke-miterlimit="5" height="1" width="1" x="12" y="5"/>
</svg>